<?xml version="1.0" standalone="no"?>
<!DOCTYPE svg PUBLIC "-//W3C//DTD SVG 20010904//EN"
 "http://www.w3.org/TR/2001/REC-SVG-20010904/DTD/svg10.dtd">
<svg version="1.0" xmlns="http://www.w3.org/2000/svg"
 width="276.000000pt" height="276.000000pt" viewBox="0 0 276.000000 276.000000"
 preserveAspectRatio="xMidYMid meet">
<metadata>
Created by potrace 1.14, written by Peter Selinger 2001-2017
</metadata>
<g transform="translate(0.000000,276.000000) scale(0.100000,-0.100000)"
fill="#000000" stroke="none">
<path d="M350 1840 c-110 -31 -199 -144 -234 -298 -39 -170 -2 -425 80 -548
41 -61 76 -79 141 -71 75 8 87 30 79 147 -3 52 -8 109 -10 125 -8 54 -9 139
-1 178 11 58 62 83 81 39 4 -9 8 -96 10 -192 4 -205 15 -254 62 -287 57 -38
139 -13 171 53 9 17 16 69 18 126 10 313 9 300 28 314 54 40 93 -66 74 -199
-4 -29 -11 -96 -15 -149 -8 -109 2 -138 53 -155 68 -24 124 1 172 76 136 212
117 610 -36 765 -55 56 -114 80 -195 80 -59 0 -73 -4 -110 -30 -27 -18 -52
-49 -68 -80 l-25 -51 -18 39 c-22 46 -70 96 -106 110 -33 13 -118 18 -151 8z"/>
<path d="M1334 1842 c-55 -18 -94 -76 -94 -138 0 -74 59 -134 132 -134 131 0
186 183 75 254 -27 18 -85 27 -113 18z"/>
<path d="M2418 1840 c-108 -42 -119 -203 -17 -256 95 -48 210 37 193 143 -13
86 -101 143 -176 113z"/>
<path d="M1649 1539 c-47 -50 -68 -158 -63 -321 5 -211 62 -318 159 -301 67
12 80 41 89 203 5 94 17 125 56 145 26 13 35 14 58 3 40 -20 55 -62 62 -178 7
-115 17 -143 58 -163 60 -30 121 -5 153 62 19 39 23 63 23 161 0 185 -47 302
-147 364 -66 41 -177 49 -237 17 -48 -25 -50 -25 -50 -7 0 22 -46 46 -91 46
-33 0 -47 -6 -70 -31z"/>
<path d="M1325 1491 c-58 -24 -77 -92 -76 -282 1 -234 31 -300 134 -294 92 6
112 60 111 300 0 166 -2 183 -22 223 -30 56 -87 77 -147 53z"/>
<path d="M2409 1485 c-47 -26 -60 -74 -63 -249 -5 -253 29 -331 139 -319 86 9
114 86 110 309 -2 136 -13 203 -38 235 -30 39 -99 51 -148 24z"/>
</g>
</svg>
